<svg id="SvgjsSvg1001" width="288" height="288" xmlns="http://www.w3.org/2000/svg" version="1.1" xmlns:xlink="http://www.w3.org/1999/xlink" xmlns:svgjs="http://svgjs.com/svgjs"><defs id="SvgjsDefs1002"></defs><g id="SvgjsG1008" transform="matrix(0.916700005531311,0,0,0.916700005531311,11.995199203491211,11.995199203491211)"><svg xmlns="http://www.w3.org/2000/svg" width="288" height="288" fill="currentColor" class="bi bi-film" viewBox="0 0 16 16"><path fill-rule="evenodd" d="M0 1a1 1 0 0 1 1-1h14a1 1 0 0 1 1 1v14a1 1 0 0 1-1 1H1a1 1 0 0 1-1-1V1zm4 0h8v6H4V1zm8 8H4v6h8V9zM1 1h2v2H1V1zm2 3H1v2h2V4zM1 7h2v2H1V7zm2 3H1v2h2v-2zm-2 3h2v2H1v-2zM15 1h-2v2h2V1zm-2 3h2v2h-2V4zm2 3h-2v2h2V7zm-2 3h2v2h-2v-2zm2 3h-2v2h2v-2z" fill="#ffffff" class="color000 svgShape"></path></svg></g></svg>